<svg width="24" height="24" viewBox="0 0 24 24" fill="none" xmlns="http://www.w3.org/2000/svg">
<g clip-path="url(#clip0_42_603)">
<path d="M11.1712 11.7135C11.1712 11.7135 12.363 11.6227 12.363 10.197C12.363 8.772 11.5545 8.06925 10.3192 8.06925L6.08624 8.0625V15.9375H10.4175C10.4175 15.9375 12.5827 16.0058 12.5827 13.575C12.5835 13.575 12.7425 11.7135 11.1712 11.7135ZM7.66124 9.24375H9.82649C9.82649 9.24375 10.5675 9.25575 10.5675 10.2165C10.5675 11.2125 9.82649 11.2125 9.82649 11.2125H7.66124V9.24375ZM10.0237 14.7562H7.66124V12.3937H10.0237C10.0237 12.3937 11.205 12.4058 11.205 13.575C11.205 14.7443 10.194 14.7562 10.0237 14.7562ZM15.93 10.0312C12.972 10.0312 12.9772 12.984 12.9772 12.984C12.9772 12.984 12.78 15.9375 15.93 15.9375C15.93 15.9375 18.6862 15.9375 18.6862 13.575H17.1112C17.1112 13.575 17.1112 14.7562 15.93 14.7562C15.93 14.7562 14.7487 14.7563 14.7487 13.1813H18.6862C18.6862 12.3938 18.6862 10.0312 15.93 10.0312ZM14.7487 12.3937C14.7487 12.3937 14.7225 11.2125 15.93 11.2125C17.1367 11.2125 17.1112 12.3937 17.1112 12.3937H14.7487ZM14.355 8.85H17.505V9.6375H14.355V8.85Z" fill="white"/>
<path d="M12 0.75C18.2033 0.75 23.25 5.79675 23.25 12C23.25 18.2033 18.2033 23.25 12 23.25C5.79675 23.25 0.75 18.2033 0.75 12C0.75 5.79675 5.79675 0.75 12 0.75ZM12 0C5.373 0 0 5.37225 0 12C0 18.6278 5.373 24 12 24C18.6278 24 24 18.6278 24 12C24 5.37225 18.6278 0 12 0Z" fill="white"/>
</g>
<defs>
<clipPath id="clip0_42_603">
<rect width="24" height="24" fill="white"/>
</clipPath>
</defs>
</svg>
