<svg width="25" height="24" viewBox="0 0 25 24" fill="none" xmlns="http://www.w3.org/2000/svg">
<g clip-path="url(#clip0_16_97)">
<path d="M12.3616 17.2176C12.4892 17.345 12.6622 17.4166 12.8425 17.4166C13.0229 17.4166 13.1959 17.345 13.3235 17.2176L18.7407 11.8004C18.8609 11.6714 18.9263 11.5007 18.9232 11.3244C18.9201 11.1481 18.8487 10.9799 18.724 10.8552C18.5993 10.7305 18.4311 10.6591 18.2548 10.656C18.0785 10.6529 17.9078 10.7183 17.7788 10.8385L13.5231 15.0829V1.68055C13.5231 1.59118 13.5055 1.50268 13.4713 1.42012C13.4371 1.33755 13.387 1.26252 13.3238 1.19933C13.2606 1.13613 13.1855 1.086 13.103 1.0518C13.0204 1.0176 12.9319 1 12.8425 1C12.7532 1 12.6647 1.0176 12.5821 1.0518C12.4995 1.086 12.4245 1.13613 12.3613 1.19933C12.2981 1.26252 12.248 1.33755 12.2138 1.42012C12.1796 1.50268 12.162 1.59118 12.162 1.68055V15.0829L7.9176 10.8385C7.78859 10.7183 7.61796 10.6529 7.44165 10.656C7.26534 10.6591 7.09712 10.7305 6.97243 10.8552C6.84774 10.9799 6.77632 11.1481 6.77321 11.3244C6.7701 11.5007 6.83554 11.6714 6.95575 11.8004L12.3616 17.2176Z" fill="white"/>
<path d="M23.5045 15.7476C23.324 15.7476 23.1509 15.8193 23.0233 15.9469C22.8957 16.0745 22.824 16.2476 22.824 16.4281V19.7719C22.824 20.2663 22.6279 20.7405 22.2788 21.0904C21.9296 21.4404 21.4559 21.6377 20.9615 21.6389H4.72355C4.22918 21.6377 3.75547 21.4404 3.40633 21.0904C3.05718 20.7405 2.8611 20.2663 2.86111 19.7719V16.4281C2.86111 16.2476 2.7894 16.0745 2.66178 15.9469C2.53415 15.8193 2.36105 15.7476 2.18055 15.7476C2.00006 15.7476 1.82696 15.8193 1.69933 15.9469C1.5717 16.0745 1.5 16.2476 1.5 16.4281V19.7719C1.5006 20.6271 1.84027 21.4471 2.44454 22.0522C3.04882 22.6574 3.86838 22.9982 4.72355 23H20.9615C21.8167 22.9982 22.6363 22.6574 23.2405 22.0522C23.8448 21.4471 24.1845 20.6271 24.1851 19.7719V16.4281C24.1851 16.2476 24.1134 16.0745 23.9858 15.9469C23.8581 15.8193 23.685 15.7476 23.5045 15.7476Z" fill="white"/>
</g>
<defs>
<clipPath id="clip0_16_97">
<rect width="24" height="24" fill="white" transform="translate(0.5)"/>
</clipPath>
</defs>
</svg>
