<svg width="24" height="24" viewBox="0 0 24 24" fill="none" xmlns="http://www.w3.org/2000/svg">
<g clip-path="url(#clip0_42_614)">
<path d="M20.245 3.29553L19.7773 2.85246L19.7614 2.87967C17.5876 1.02526 14.8609 0 11.9997 0C10.4436 0 8.92703 0.302907 7.48232 0.892293L7.47565 0.885618L7.15169 1.02834C3.61743 2.59268 1.03913 5.77526 0.254134 9.54106L0.170963 9.94049L0.180717 9.94511C0.0620524 10.6238 0.00159334 11.3113 0 12.0003C0 15.5361 1.53867 18.8383 4.2294 21.1285L4.2253 21.1388L4.53437 21.3847C6.68244 23.0954 9.26382 23.9995 11.9997 23.9995C13.4561 23.9973 14.8997 23.7288 16.2594 23.2073L16.5906 23.0815V23.0666C20.59 21.4628 23.3223 17.8926 23.8747 13.5697L23.9035 13.58L23.9548 12.9157C23.9759 12.6374 24.0005 12.3227 24.0005 12.0008C23.9995 8.68163 22.6662 5.59043 20.245 3.29553ZM22.9727 12.0003C22.9727 12.0614 22.9717 12.1224 22.9701 12.183C20.2698 11.3726 17.3991 11.3171 14.6694 12.0223L14.6669 12.0151L14.6638 12.0162C14.4075 11.3249 14.1265 10.643 13.8213 9.97181L13.8259 9.96975L13.8218 9.96154C16.3361 8.73231 18.4675 6.84067 19.9867 4.49021C21.9171 6.53458 22.9727 9.17757 22.9727 12.0003ZM19.2192 3.7658C17.7965 6.03162 15.769 7.85481 13.3654 9.02971C12.0277 6.3483 10.305 3.87697 8.25191 1.69423C9.45215 1.25284 10.7209 1.0269 11.9997 1.0268C14.6694 1.0268 17.2123 2.00278 19.2192 3.7658ZM7.24513 2.11624C9.33848 4.28553 11.0895 6.76074 12.4382 9.45686C10.7195 10.1566 8.88104 10.5149 7.02539 10.5119C5.0565 10.5119 3.14972 10.1207 1.35179 9.34905C2.13473 6.19625 4.30282 3.53426 7.24513 2.11624ZM1.0268 12.0003C1.02754 11.4558 1.06855 10.9122 1.14951 10.3738C3.01201 11.145 5.00851 11.5407 7.02437 11.5382C9.04717 11.5382 11.0104 11.1465 12.8705 10.3836C13.1602 11.0198 13.4274 11.666 13.6714 12.3211C11.7256 12.9633 9.92753 13.9873 8.38263 15.3333C6.83773 16.6794 5.57706 18.3202 4.67452 20.1598C2.34933 18.0748 1.0268 15.1366 1.0268 12.0003ZM5.49032 20.8251C6.3238 19.0531 7.5104 17.4699 8.97738 16.1727C10.4444 14.8755 12.1608 13.8916 14.0215 13.2812C15.0054 16.2115 15.5249 19.2776 15.5612 22.3684C14.416 22.7668 13.2123 22.971 11.9997 22.9727C9.65472 22.9801 7.37058 22.2265 5.49032 20.8251ZM16.5736 21.9659C16.4995 18.9185 15.9708 15.8993 15.0052 13.0081C17.6004 12.356 20.3255 12.4365 22.8777 13.2406C22.447 17.1461 20.0843 20.4093 16.5736 21.9659Z" fill="white"/>
</g>
<defs>
<clipPath id="clip0_42_614">
<rect width="24" height="24" fill="white"/>
</clipPath>
</defs>
</svg>
