<svg width="24" height="24" viewBox="0 0 24 24" fill="none" xmlns="http://www.w3.org/2000/svg">
<g clip-path="url(#clip0_42_620)">
<path d="M12 0.00439453C18.6248 0.00439453 23.9958 5.37533 23.9958 12.0002C23.9958 18.625 18.6248 23.996 12 23.996C5.37515 23.996 0.00421143 18.625 0.00421143 12.0002C0.00421143 5.37533 5.37515 0.00439453 12 0.00439453ZM7.05655 17.1621H8.74734V10.4641H7.05655V17.1621ZM12.3356 13.6324C12.3356 12.5758 12.8334 11.7288 13.98 11.7288C15.112 11.7288 15.4786 12.6414 15.4786 13.6324V17.163H17.1591V12.8477C17.1591 11.3149 16.4166 10.2428 14.7975 10.2428C14.0625 10.2428 13.2136 10.6281 12.8545 11.2971L12.3356 12.2435V10.4641H10.7358V17.1621H12.3356V13.6324ZM12.8892 13.6324V17.7156H10.1822V9.91049H12.8892V10.4088C13.4236 9.93018 14.0798 9.68924 14.7975 9.68924C16.7222 9.68924 17.7126 11.0083 17.7126 12.8477V17.7142L14.925 17.7147V13.6324C14.925 12.9667 14.7783 12.2824 13.98 12.2824C13.1475 12.2824 12.8892 12.888 12.8892 13.6324ZM7.8914 8.96127C8.47734 8.96127 8.94187 8.48221 8.94187 7.89955C8.94187 7.31643 8.47734 6.8383 7.8914 6.8383C7.30546 6.8383 6.84093 7.31643 6.84093 7.89955C6.84093 8.48221 7.30499 8.96127 7.8914 8.96127ZM7.8914 9.51486C7.00218 9.51486 6.28734 8.78549 6.28734 7.89955C6.28734 7.01361 7.00218 6.28471 7.8914 6.28471C8.78015 6.28471 9.49546 7.01361 9.49546 7.89955C9.49546 8.78502 8.78015 9.51486 7.8914 9.51486ZM6.50296 17.7156V9.91049H9.30093V17.7156H6.50296ZM12 0.558457C5.68077 0.558457 0.557805 5.68096 0.557805 12.0002C0.557805 18.3194 5.68077 23.4419 12 23.4419C18.3192 23.4419 23.4422 18.3194 23.4422 12.0002C23.4422 5.68096 18.3192 0.558457 12 0.558457Z" fill="white"/>
</g>
<defs>
<clipPath id="clip0_42_620">
<rect width="24" height="24" fill="white"/>
</clipPath>
</defs>
</svg>
