<svg width="48" height="48" viewBox="0 0 48 48" fill="none" xmlns="http://www.w3.org/2000/svg">
<path d="M48 24C48 37.2548 37.2548 48 24 48C10.7452 48 0 37.2548 0 24C0 10.7452 10.7452 0 24 0C37.2548 0 48 10.7452 48 24Z" fill="#FFD300"/>
<path d="M10.032 32L14.448 15.2H19.968L24.384 32H21.12L20.208 28.304H14.208L13.296 32H10.032ZM14.952 25.376H19.464L17.424 17.192H16.992L14.952 25.376Z" fill="#16131E"/>
<path d="M28.7361 32V18.08H23.8401V15.2H36.8001V18.08H31.9041V32H28.7361Z" fill="#16131E"/>
</svg>
