<svg width="24" height="13" viewBox="0 0 24 13" fill="none" xmlns="http://www.w3.org/2000/svg">
<path d="M22.6894 5.99846L22.6889 5.99793L17.6952 1.00416C17.4246 0.696979 16.9566 0.663187 16.6446 0.930385C16.3301 1.19979 16.2934 1.67325 16.5629 1.98786L16.5629 1.98792C16.5856 2.01433 16.6102 2.03936 16.6366 2.06267L20.3491 5.77969H1.15751C0.74331 5.77969 0.407532 6.11549 0.407532 6.52971C0.407532 6.94395 0.743337 7.27968 1.15751 7.27968H20.3486L16.6366 10.9917C16.3295 11.2622 16.2957 11.7303 16.5629 12.0422C16.8323 12.3567 17.3057 12.3935 17.6203 12.124L17.6204 12.1239C17.6468 12.1013 17.6719 12.0766 17.6952 12.0502L22.6889 7.05642L22.6894 7.05591C22.9803 6.76342 22.9802 6.29097 22.6894 5.99846Z" fill="#FFD300" stroke="#FFD300" stroke-width="0.5"/>
</svg>
