<svg width="36" height="36" viewBox="0 0 36 36" fill="none" xmlns="http://www.w3.org/2000/svg">
<g clip-path="url(#clip0_13_35)">
<path d="M18 36C27.9411 36 36 27.9411 36 18C36 8.05887 27.9411 0 18 0C8.05887 0 0 8.05887 0 18C0 27.9411 8.05887 36 18 36Z" fill="url(#paint0_linear_13_35)"/>
<path d="M26.91 20.0013C28.2813 13.8434 22.8837 8.24447 16.5482 9.31737C13.1068 7.18342 8.52632 9.59447 8.52632 13.6895C8.52438 14.606 8.76985 15.5061 9.23684 16.2947C7.96263 22.4692 13.4053 27.9853 19.7361 26.8366C24.2195 29.2097 29.1671 24.4895 26.91 20.0013ZM20.8871 23.715C19.2292 24.3995 16.4866 24.4042 14.8311 23.5374C12.4626 22.2774 12.0505 19.4424 14.0874 19.4424C15.6221 19.4424 15.1366 21.2329 16.6926 21.9624C17.4032 22.2916 18.9332 22.3247 19.8213 21.7255C20.7095 21.1263 20.6053 20.2145 20.1316 19.7716C18.8668 18.6039 15.2503 19.0611 13.5947 17.0242C13.209 16.505 13.0032 15.8741 13.0088 15.2273C13.0143 14.5805 13.2309 13.9533 13.6255 13.4408C15.165 11.4584 19.6816 11.3376 21.6261 12.8345C23.4189 14.2224 22.9358 16.065 21.4863 16.065C19.7455 16.065 20.6621 13.7866 17.8508 13.7866C15.814 13.7866 15.0087 15.2361 16.4463 15.9418C18.3979 16.9082 23.3526 16.5789 23.3526 20.3684C23.3526 21.9387 22.3863 23.1111 20.8871 23.7221V23.715Z" fill="white"/>
</g>
<defs>
<linearGradient id="paint0_linear_13_35" x1="18" y1="0" x2="18" y2="36" gradientUnits="userSpaceOnUse">
<stop stop-color="#00B0FF"/>
<stop offset="1" stop-color="#2789B6"/>
</linearGradient>
<clipPath id="clip0_13_35">
<rect width="36" height="36" fill="white"/>
</clipPath>
</defs>
</svg>
