<svg width="36" height="36" viewBox="0 0 36 36" fill="none" xmlns="http://www.w3.org/2000/svg">
<g clip-path="url(#clip0_13_21)">
<path d="M32.6598 0H3.34023C1.49547 0 0 1.49547 0 3.34023V32.6598C0 34.5045 1.49547 36 3.34023 36H32.6598C34.5045 36 36 34.5045 36 32.6598V3.34023C36 1.49547 34.5045 0 32.6598 0Z" fill="url(#paint0_linear_13_21)"/>
<path d="M25.9364 10.0636C24.0636 8.1722 21.5766 7.01225 18.924 6.793C16.2713 6.57375 13.6276 7.30965 11.4697 8.86795C9.31184 10.4262 7.78185 12.7044 7.15571 15.2914C6.52958 17.8784 6.84852 20.604 8.05501 22.9766L6.87069 28.7264C6.8584 28.7836 6.85805 28.8427 6.86967 28.9001C6.88128 28.9575 6.90461 29.0118 6.93819 29.0598C6.98738 29.1325 7.0576 29.1885 7.13947 29.2203C7.22134 29.2521 7.31097 29.2582 7.39637 29.2377L13.0316 27.902C15.3975 29.078 18.1039 29.3764 20.6692 28.7442C23.2344 28.1121 25.4922 26.5903 27.0408 24.4497C28.5894 22.309 29.3283 19.6884 29.1261 17.0542C28.9238 14.4199 27.7936 11.9428 25.9364 10.0636ZM24.1793 24.0873C22.8836 25.3794 21.215 26.2323 19.4088 26.5259C17.6026 26.8195 15.7499 26.5389 14.1116 25.7236L13.3261 25.335L9.87137 26.1532L9.8816 26.1102L10.5975 22.633L10.213 21.8741C9.37588 20.2301 9.08059 18.3634 9.36939 16.5413C9.65819 14.7192 10.5163 13.0352 11.8207 11.7307C13.4597 10.0922 15.6824 9.17168 18 9.17168C20.3176 9.17168 22.5403 10.0922 24.1793 11.7307C24.1933 11.7467 24.2083 11.7617 24.2243 11.7757C25.843 13.4184 26.7467 15.6345 26.7383 17.9408C26.7298 20.247 25.81 22.4564 24.1793 24.0873Z" fill="white"/>
<path d="M23.8725 21.5366C23.4491 22.2034 22.7802 23.0195 21.9395 23.222C20.4668 23.578 18.2066 23.2343 15.3941 20.612L15.3593 20.5814C12.8863 18.2884 12.2441 16.38 12.3995 14.8664C12.4854 14.0073 13.2013 13.23 13.8048 12.7227C13.9002 12.6413 14.0133 12.5833 14.1351 12.5535C14.2569 12.5236 14.384 12.5226 14.5063 12.5506C14.6285 12.5787 14.7425 12.6349 14.8391 12.7149C14.9357 12.7948 15.0123 12.8963 15.0627 13.0111L15.9729 15.0566C16.0321 15.1892 16.054 15.3354 16.0364 15.4796C16.0187 15.6237 15.9621 15.7603 15.8727 15.8748L15.4125 16.472C15.3137 16.5954 15.2541 16.7454 15.2414 16.9029C15.2286 17.0604 15.2633 17.2181 15.3409 17.3557C15.5986 17.8077 16.2163 18.4725 16.9016 19.0882C17.6707 19.7836 18.5236 20.4198 19.0636 20.6366C19.2081 20.6956 19.367 20.71 19.5197 20.6779C19.6725 20.6459 19.8121 20.5688 19.9207 20.4566L20.4545 19.9186C20.5575 19.8171 20.6856 19.7446 20.8258 19.7087C20.9659 19.6727 21.1131 19.6746 21.2523 19.7141L23.4143 20.3277C23.5336 20.3643 23.6429 20.4277 23.7339 20.513C23.8249 20.5983 23.8952 20.7033 23.9394 20.82C23.9836 20.9366 24.0006 21.0618 23.989 21.186C23.9774 21.3102 23.9375 21.4301 23.8725 21.5366Z" fill="white"/>
</g>
<defs>
<linearGradient id="paint0_linear_13_21" x1="18" y1="0.147273" x2="18" y2="34.2573" gradientUnits="userSpaceOnUse">
<stop stop-color="#35DB23"/>
<stop offset="1" stop-color="#27A11A"/>
</linearGradient>
<clipPath id="clip0_13_21">
<rect width="36" height="36" rx="18" fill="white"/>
</clipPath>
</defs>
</svg>
